<svg id="Layer_1" data-name="Layer 1" xmlns="http://www.w3.org/2000/svg" viewBox="0 0 909.51 631.58"><defs><style>.cls-1{fill:#922b46;}.cls-2{fill:none;stroke:#2d4255;stroke-miterlimit:10;stroke-width:20px;}</style></defs><title>we_care_logo_prod</title><path class="cls-1" d="M442.69,74.6c-28.24-23.08-57-46.59-91.32-60.11C316.69.81,278.22-.23,242,7.34,206.05,14.85,170.79,30.47,142.43,54,117,75,98.16,103,85.57,133.28c-27.46,66.08-22.21,140.9,5.76,205.87,29.53,68.59,84.38,119.27,141.53,165.15,58,46.53,119.62,89.7,188.1,119.35q12.38,5.36,25,10.15c7.17,2.72,10.27-8.79,3.17-11.48C382.41,597.06,321.83,558,265.42,514.85c-55.3-42.35-112.07-88.31-147.53-149.36C83.39,306.08,69.15,233.86,86.83,166.73c8-30.48,22.25-59.75,42.95-83.68,22.68-26.21,52.75-44.43,85.28-55.82,33.77-11.83,70.76-16.6,106.07-9.32,34.94,7.21,64.86,26.74,92.52,48.48,6.94,5.46,13.79,11,20.62,16.63,5.89,4.81,14.36-3.57,8.42-8.42Z" transform="translate(0.51 -2.63)"/><path class="cls-1" d="M460.92,83c27.18-22.21,55.24-45.45,88.48-58,33.52-12.64,70.3-13.21,105-5.27,34.36,7.87,68.35,23.18,94.81,46.78,23.4,20.88,40.86,48,51.88,77.3,24.32,64.61,17.42,136.89-11.76,198.75C759,406.94,705.74,454.47,651.11,498.13c-55.66,44.47-115,85.48-180.48,114.19-8.1,3.55-16.3,6.87-24.57,10-7.1,2.69-4,14.2,3.17,11.48C519,607.39,582,566.72,640.74,521.31c57.47-44.4,115.83-92.5,151-157.31,34-62.56,46.53-137.59,26.33-206.62-9.28-31.7-25.08-61.73-47.37-86.22C746.34,44.35,714.07,26,679.91,14.59,644.75,2.84,606.49-1.11,570,6.61s-67.4,28.22-96.21,50.81c-7.18,5.63-14.25,11.4-21.32,17.18-5.94,4.85,2.53,13.23,8.42,8.42Z" transform="translate(0.51 -2.63)"/><path class="cls-1" d="M431.6,80.67a22.47,22.47,0,0,0,13,7.43c6.06,1.07,11.61-1.54,16.17-5.32,5.91-4.89-2.56-13.27-8.42-8.42-4.3,3.56-9.06,1.75-12.35-2.12-5-5.85-13.36,2.61-8.42,8.42Z" transform="translate(0.51 -2.63)"/><path class="cls-2" d="M-.5,278.5l225.5-.12s30.37-60,68.69-59.69S349,278.33,349,278.33L350,290s13,279,44,279,34-290.74,34-290.74S430,72,461,54s55,224.22,55,224.22S524,384,562,385s43-106.83,43-106.83S608,224,643,221s71,57.11,71,57.11L909,278" transform="translate(0.51 -2.63)"/></svg>